<?xml version="1.0" encoding="utf-8"?>
<!-- Generator: Adobe Illustrator 25.0.0, SVG Export Plug-In . SVG Version: 6.00 Build 0)  -->
<svg version="1.1" id="Layer_1" xmlns="http://www.w3.org/2000/svg" xmlns:xlink="http://www.w3.org/1999/xlink" x="0px" y="0px"
	 viewBox="0 0 84.3 65.2" style="enable-background:new 0 0 84.3 65.2;" xml:space="preserve">
<style type="text/css">
	.st0{fill:url(#SVGID_1_);}
	.st1{fill:url(#SVGID_2_);}
	.st2{fill:url(#SVGID_3_);}
	.st3{fill:url(#SVGID_4_);}
</style>
<g id="Layer_2_1_">
	<g id="ىثص">
		
			<linearGradient id="SVGID_1_" gradientUnits="userSpaceOnUse" x1="-803.7" y1="164.9925" x2="-789.3" y2="164.9925" gradientTransform="matrix(1 0 0 1 803.7 -120.78)">
			<stop  offset="2.000000e-02" style="stop-color:#F18010"/>
			<stop  offset="0.99" style="stop-color:#F19C10"/>
		</linearGradient>
		<path class="st0" d="M12.9,36.1L1.5,31c-0.6-0.2-1.2,0-1.4,0.6C0,31.7,0,31.9,0,32v24.4c0,0.6,0.5,1.1,1.1,1.1
			c0.1,0,0.3,0,0.4-0.1l11.4-5.1c0.9-0.4,1.5-1.3,1.5-2.3V38.4C14.4,37.4,13.8,36.5,12.9,36.1z"/>
		
			<linearGradient id="SVGID_2_" gradientUnits="userSpaceOnUse" x1="-755.2515" y1="135.28" x2="-735.8637" y2="135.28" gradientTransform="matrix(1 0 0 1 803.7 -120.78)">
			<stop  offset="1.000000e-02" style="stop-color:#F18010"/>
			<stop  offset="1" style="stop-color:#F19C10"/>
		</linearGradient>
		<path class="st1" d="M67.7,17.8L54.9,5c-0.2-0.2-0.6-0.2-0.8,0l-5.4,5.4c-0.2,0.2-0.2,0.6,0,0.8L61.5,24c0.2,0.2,0.6,0.2,0.8,0
			l5.4-5.4C67.9,18.4,67.9,18.1,67.7,17.8z M51.4,12.9l-1.7-1.7l1.7-1.7l1.7,1.7L51.4,12.9z M54.5,9.8L52.8,8l1.7-1.7L56.2,8
			L54.5,9.8z M61.8,23.2l-1.7-1.7l1.7-1.7l1.8,1.7L61.8,23.2z M64.9,20.1l-1.7-1.7l1.7-1.8l1.7,1.8L64.9,20.1z"/>
		
			<linearGradient id="SVGID_3_" gradientUnits="userSpaceOnUse" x1="-782.025" y1="140.28" x2="-743.0606" y2="140.28" gradientTransform="matrix(1 0 0 1 803.7 -120.78)">
			<stop  offset="1.000000e-02" style="stop-color:#F18010"/>
			<stop  offset="1" style="stop-color:#F19C10"/>
		</linearGradient>
		<path class="st2" d="M60.5,25.1l-25-24.9c-0.3-0.3-0.7-0.3-1,0l0,0L21.9,12.9c-0.3,0.3-0.3,0.7,0,1l0,0l24.9,24.9
			c0.3,0.3,0.7,0.3,1,0l0,0l12.6-12.7C60.7,25.8,60.7,25.4,60.5,25.1L60.5,25.1z M49.6,15.8l-1.7,1.7l-1.8-1.7l1.8-1.7L49.6,15.8z
			 M46.5,12.7l-1.7,1.8L43,12.7l1.8-1.7L46.5,12.7z M43.4,9.7l-1.8,1.7l-1.7-1.7l1.7-1.8L43.4,9.7z M40.4,6.6l-1.7,1.7L37,6.6
			l1.7-1.7L40.4,6.6z M35.5,1.8l1.7,1.8l-1.7,1.7l-1.7-1.7L35.5,1.8z M23.6,13.7l1.7-1.7l1.7,1.7l-1.7,1.7L23.6,13.7z M26.7,16.8
			l1.7-1.8l1.7,1.7l-1.7,1.8L26.7,16.8z M29.8,19.8l1.7-1.7l1.8,1.7l-1.8,1.7L29.8,19.8z M32.8,22.9l1.7-1.8l1.7,1.8l-1.7,1.8
			L32.8,22.9z M35.9,26l1.8-1.7l1.7,1.7l-1.7,1.7L35.9,26z M39,29l1.7-1.7l1.7,1.7l-1.8,1.7L39,29z M42,32.1l1.7-1.8l1.7,1.8
			l-1.7,1.8L42,32.1z M46.8,36.9l-1.7-1.7l1.8-1.7l1.7,1.7L46.8,36.9z M49.1,18.9l1.7-1.8l1.8,1.8l-1.8,1.7L49.1,18.9z M52.2,22
			l1.8-1.8l1.7,1.7L54,23.7L52.2,22z M57,26.7L55.3,25l1.7-1.7l1.8,1.7L57,26.7z"/>
		
			<linearGradient id="SVGID_4_" gradientUnits="userSpaceOnUse" x1="-712.3145" y1="204.6426" x2="-782.4144" y2="141.5426" gradientTransform="matrix(1 0 0 1 803.7 -120.78)">
			<stop  offset="0" style="stop-color:#F1AE10"/>
			<stop  offset="1" style="stop-color:#F18010"/>
		</linearGradient>
		<path class="st3" d="M67.2,22.8h-2c-0.3,0.2-0.6,0.4-0.9,0.6L48.6,39.2c-0.7,0.7-1.8,0.7-2.6,0l0,0L30.1,23.3
			c-0.2-0.2-0.4-0.3-0.7,0.3h-2.7c-6-0.6-10.6,10.2-10.6,10.2v20.3c0,6,4.8,11,10.8,11l0,0h40.2c6,0,10.9-5,10.8-11l0,0V33.8
			C78,27.8,73.2,22.8,67.2,22.8L67.2,22.8z M70.1,36.4h-7c-1.1,0-2-0.9-2-2v-0.2c0-1.1,0.9-2,2-2h7c1.1,0,2,0.9,2,2v0.2
			C72.1,35.5,71.2,36.4,70.1,36.4z"/>
	</g>
</g>
</svg>
