<?xml version="1.0" encoding="utf-8"?>
<!-- Generator: Adobe Illustrator 25.0.0, SVG Export Plug-In . SVG Version: 6.00 Build 0)  -->
<svg version="1.1" id="Layer_1" xmlns="http://www.w3.org/2000/svg" xmlns:xlink="http://www.w3.org/1999/xlink" x="0px" y="0px"
	 viewBox="0 0 187.9 73.4" style="enable-background:new 0 0 187.9 73.4;" xml:space="preserve">
<style type="text/css">
	.st0{fill:url(#SVGID_1_);}
	.st1{fill:url(#SVGID_2_);}
	.st2{fill:url(#SVGID_3_);}
	.st3{fill:url(#SVGID_4_);}
	.st4{fill:#FFFFFF;}
	.st5{fill:#F19810;}
</style>
<g id="Layer_2_1_">
	<g id="ىثص">
		
			<linearGradient id="SVGID_1_" gradientUnits="userSpaceOnUse" x1="-796.5" y1="-99.7232" x2="-782.1" y2="-99.7232" gradientTransform="matrix(1 0 0 -1 803.7 -52.78)">
			<stop  offset="2.000000e-02" style="stop-color:#F18010"/>
			<stop  offset="0.99" style="stop-color:#F19C10"/>
		</linearGradient>
		<path class="st0" d="M20.1,38.8L8.7,33.7c-0.6-0.2-1.2,0-1.4,0.6c-0.1,0.1-0.1,0.3-0.1,0.4v24.4c0,0.6,0.5,1.1,1.1,1.1
			c0.1,0,0.3,0,0.4-0.1L20.1,55c0.9-0.4,1.5-1.3,1.5-2.3V41.1C21.6,40.1,21,39.2,20.1,38.8z"/>
		
			<linearGradient id="SVGID_2_" gradientUnits="userSpaceOnUse" x1="-748.0515" y1="-70.0107" x2="-728.6637" y2="-70.0107" gradientTransform="matrix(1 0 0 -1 803.7 -52.78)">
			<stop  offset="1.000000e-02" style="stop-color:#F18010"/>
			<stop  offset="1" style="stop-color:#F19C10"/>
		</linearGradient>
		<path class="st1" d="M74.9,20.5L62.1,7.7c-0.2-0.2-0.6-0.2-0.8,0l-5.4,5.4c-0.2,0.2-0.2,0.6,0,0.8l12.8,12.8
			c0.2,0.2,0.6,0.2,0.8,0l5.4-5.4C75.1,21.1,75.1,20.8,74.9,20.5z M58.6,15.6l-1.7-1.7l1.7-1.7l1.7,1.7L58.6,15.6z M61.7,12.5
			L60,10.7L61.7,9l1.7,1.7L61.7,12.5z M69,25.9l-1.7-1.7l1.7-1.7l1.8,1.7L69,25.9z M72.1,22.8l-1.7-1.7l1.7-1.8l1.7,1.8L72.1,22.8z"
			/>
		
			<linearGradient id="SVGID_3_" gradientUnits="userSpaceOnUse" x1="-774.825" y1="-75.0107" x2="-735.8606" y2="-75.0107" gradientTransform="matrix(1 0 0 -1 803.7 -52.78)">
			<stop  offset="1.000000e-02" style="stop-color:#F18010"/>
			<stop  offset="1" style="stop-color:#F19C10"/>
		</linearGradient>
		<path class="st2" d="M67.7,27.8l-25-24.9c-0.3-0.3-0.7-0.3-1,0l0,0L29.1,15.6c-0.3,0.3-0.3,0.7,0,1l0,0L54,41.5
			c0.3,0.3,0.7,0.3,1,0l0,0l12.6-12.7C67.9,28.5,67.9,28.1,67.7,27.8L67.7,27.8z M56.8,18.5l-1.7,1.7l-1.8-1.7l1.8-1.7L56.8,18.5z
			 M53.7,15.4L52,17.2l-1.8-1.8l1.8-1.7L53.7,15.4z M50.6,12.4l-1.8,1.7l-1.7-1.7l1.7-1.8L50.6,12.4z M47.6,9.3L45.9,11l-1.7-1.7
			l1.7-1.7L47.6,9.3z M42.7,4.5l1.7,1.8L42.7,8L41,6.3L42.7,4.5z M30.8,16.4l1.7-1.7l1.7,1.7l-1.7,1.7L30.8,16.4z M33.9,19.5
			l1.7-1.8l1.7,1.7l-1.7,1.8L33.9,19.5z M37,22.5l1.7-1.7l1.8,1.7l-1.8,1.7L37,22.5z M40,25.6l1.7-1.8l1.7,1.8l-1.7,1.8L40,25.6z
			 M43.1,28.7l1.8-1.7l1.7,1.7l-1.7,1.7L43.1,28.7z M46.2,31.7l1.7-1.7l1.7,1.7l-1.8,1.7L46.2,31.7z M49.2,34.8l1.7-1.8l1.7,1.8
			l-1.7,1.8L49.2,34.8z M54,39.6l-1.7-1.7l1.8-1.7l1.7,1.7L54,39.6z M56.3,21.6l1.7-1.8l1.8,1.8L58,23.3L56.3,21.6z M59.4,24.7
			l1.8-1.8l1.7,1.7l-1.7,1.8L59.4,24.7z M64.2,29.4l-1.7-1.7l1.7-1.7l1.8,1.7L64.2,29.4z"/>
		
			<linearGradient id="SVGID_4_" gradientUnits="userSpaceOnUse" x1="-705.1145" y1="-139.3733" x2="-775.2144" y2="-76.2733" gradientTransform="matrix(1 0 0 -1 803.7 -52.78)">
			<stop  offset="0" style="stop-color:#F1AE10"/>
			<stop  offset="1" style="stop-color:#F18010"/>
		</linearGradient>
		<path class="st3" d="M74.4,25.5h-2c-0.3,0.2-0.6,0.4-0.9,0.6L55.8,41.9c-0.7,0.7-1.8,0.7-2.6,0l0,0L37.3,26
			c-0.2-0.2-0.4-0.3-0.7,0.3h-2.7c-6-0.6-10.6,10.2-10.6,10.2v20.3c0,6,4.8,11,10.8,11l0,0h40.2c6,0,10.9-5,10.8-11l0,0V36.5
			C85.2,30.5,80.4,25.5,74.4,25.5L74.4,25.5z M77.3,39.1h-7c-1.1,0-2-0.9-2-2v-0.2c0-1.1,0.9-2,2-2h7c1.1,0,2,0.9,2,2v0.2
			C79.3,38.2,78.4,39.1,77.3,39.1z"/>
	</g>
</g>
<g>
	<g>
		<path class="st4" d="M93.3,32.8c0.9,0.5,2.2,1,3.5,1c2,0,3.2-1.1,3.2-2.6c0-1.4-0.8-2.2-2.9-3c-2.5-0.9-4-2.2-4-4.3
			c0-2.4,2-4.1,4.9-4.1c1.5,0,2.7,0.4,3.3,0.7l-0.5,1.6c-0.5-0.3-1.5-0.7-2.9-0.7c-2.1,0-2.9,1.2-2.9,2.3c0,1.4,0.9,2.1,3,2.9
			c2.6,1,3.9,2.2,3.9,4.4c0,2.3-1.7,4.4-5.3,4.4c-1.5,0-3.1-0.4-3.9-1L93.3,32.8z"/>
		<path class="st4" d="M106.9,21.2v3.1h2.8v1.5h-2.8v5.9c0,1.3,0.4,2.1,1.5,2.1c0.5,0,0.9-0.1,1.1-0.1l0.1,1.5
			c-0.4,0.2-1,0.3-1.8,0.3c-0.9,0-1.7-0.3-2.1-0.8c-0.6-0.6-0.8-1.5-0.8-2.8v-5.9h-1.7v-1.5h1.7v-2.6L106.9,21.2z"/>
		<path class="st4" d="M121.1,32.2c0,1.1,0,2.1,0.1,3h-1.8l-0.1-1.8h0c-0.5,0.9-1.7,2-3.6,2c-1.7,0-3.7-0.9-3.7-4.8v-6.4h2v6
			c0,2.1,0.6,3.5,2.4,3.5c1.3,0,2.2-0.9,2.6-1.8c0.1-0.3,0.2-0.7,0.2-1v-6.7h2V32.2z"/>
		<path class="st4" d="M133.7,19.2v13.1c0,1,0,2.1,0.1,2.8h-1.8l-0.1-1.9h0c-0.6,1.2-1.9,2.1-3.7,2.1c-2.6,0-4.6-2.2-4.6-5.5
			c0-3.6,2.2-5.8,4.9-5.8c1.7,0,2.8,0.8,3.3,1.7h0v-6.5H133.7z M131.8,28.7c0-0.2,0-0.6-0.1-0.8c-0.3-1.3-1.4-2.3-2.9-2.3
			c-2,0-3.3,1.8-3.3,4.2c0,2.2,1.1,4,3.2,4c1.3,0,2.5-0.9,2.9-2.4c0.1-0.3,0.1-0.5,0.1-0.9V28.7z"/>
		<path class="st4" d="M139.2,21.2c0,0.7-0.5,1.2-1.3,1.2c-0.7,0-1.2-0.5-1.2-1.2c0-0.7,0.5-1.2,1.2-1.2
			C138.7,20,139.2,20.6,139.2,21.2z M137,35.2V24.3h2v10.9H137z"/>
		<path class="st4" d="M152.1,29.6c0,4-2.8,5.8-5.4,5.8c-2.9,0-5.2-2.2-5.2-5.6c0-3.6,2.4-5.8,5.4-5.8
			C150,24.1,152.1,26.3,152.1,29.6z M143.5,29.8c0,2.4,1.4,4.2,3.3,4.2c1.9,0,3.3-1.8,3.3-4.2c0-1.8-0.9-4.2-3.3-4.2
			C144.5,25.5,143.5,27.7,143.5,29.8z"/>
	</g>
	<g>
		<path class="st5" d="M95.2,44.2l2.9,6.6l2.9-6.6h3.7l-4.8,10.6v6.1h-3.5v-6l-5-10.7H95.2z"/>
		<path class="st5" d="M113,49.8c0.8,0,1.5,0.2,2.2,0.5s1.3,0.7,1.8,1.2c0.5,0.5,0.9,1.1,1.2,1.8c0.3,0.7,0.4,1.5,0.5,2.3
			c0,0.8-0.2,1.5-0.5,2.2c-0.3,0.7-0.7,1.3-1.2,1.8c-0.5,0.5-1.1,0.9-1.8,1.2c-0.7,0.3-1.5,0.5-2.3,0.5c-0.8,0-1.6-0.1-2.3-0.4
			c-0.7-0.3-1.3-0.7-1.9-1.2s-1-1.1-1.3-1.9c-0.3-0.7-0.5-1.5-0.5-2.3c0-0.5,0.1-1.1,0.2-1.6c0.1-0.5,0.4-1,0.6-1.4
			c0.3-0.4,0.6-0.8,1-1.2c0.4-0.4,0.8-0.7,1.2-0.9c0.4-0.2,0.9-0.4,1.4-0.6C111.9,49.8,112.4,49.8,113,49.8z M110,55.5
			c0,0.4,0,0.8,0.2,1.1s0.3,0.7,0.6,0.9c0.3,0.3,0.5,0.5,0.9,0.6s0.7,0.2,1.1,0.2c0.4,0,0.8-0.1,1.1-0.2c0.4-0.2,0.7-0.4,0.9-0.7
			c0.3-0.3,0.5-0.6,0.6-1s0.2-0.7,0.2-1.2c0-0.4-0.1-0.7-0.2-1.1s-0.3-0.6-0.6-0.9c-0.2-0.2-0.5-0.4-0.9-0.6
			c-0.3-0.1-0.7-0.2-1.1-0.2c-0.4,0-0.8,0.1-1.1,0.2c-0.3,0.1-0.6,0.3-0.9,0.6c-0.3,0.3-0.5,0.6-0.6,0.9
			C110.1,54.7,110,55.1,110,55.5z"/>
		<path class="st5" d="M124.3,50v6.5c0,0.5,0.1,0.9,0.4,1.2c0.3,0.3,0.7,0.5,1.2,0.5c0.2,0,0.4,0,0.6-0.1c0.2-0.1,0.4-0.2,0.5-0.4
			c0.1-0.1,0.2-0.3,0.3-0.5s0.1-0.4,0.1-0.6V50h3.2v6.7c0,0.7-0.1,1.2-0.4,1.8c-0.3,0.5-0.6,1-1,1.4s-0.9,0.7-1.5,1
			c-0.6,0.2-1.2,0.4-1.8,0.4c-0.7,0-1.3-0.1-1.9-0.4c-0.6-0.3-1.1-0.6-1.5-1c-0.4-0.4-0.8-1-1-1.6s-0.4-1.2-0.4-1.9l0-6.4H124.3z"/>
		<path class="st5" d="M138.4,47.8c-0.2,0.2-0.4,0.5-0.5,0.8s-0.2,0.5-0.2,0.8s-0.1,0.4-0.1,0.6c0,0.1,0,0.2,0,0.2h2.4v2.8h-2.2v8
			h-3.2v-8h-1.7v-2.8h1.6c0,0,0-0.1,0-0.4c0-0.2,0-0.6,0.1-0.9c0.1-0.4,0.2-0.8,0.3-1.2c0.1-0.4,0.3-0.8,0.6-1.2
			c0.5-0.7,1.1-1.2,1.7-1.6c0.7-0.4,1.5-0.7,2.4-0.8V47c0,0-0.1,0-0.2,0.1s-0.2,0.1-0.4,0.2c-0.1,0.1-0.3,0.2-0.4,0.2
			C138.6,47.6,138.5,47.7,138.4,47.8z"/>
		<path class="st5" d="M146.7,47.4V50h2V53h-2v7.9h-3V53h-1.5V50h1.5v-2.7H146.7z"/>
		<path class="st5" d="M160.9,59.6c0,0,0,0-0.1,0.1s-0.2,0.2-0.4,0.3c-0.2,0.1-0.4,0.3-0.7,0.4s-0.5,0.3-0.9,0.4
			c-0.3,0.1-0.7,0.2-1,0.3c-0.4,0.1-0.7,0.1-1.1,0.1c-0.8,0-1.5-0.2-2.2-0.5c-0.7-0.3-1.3-0.7-1.8-1.2c-0.5-0.5-0.9-1.1-1.2-1.8
			c-0.3-0.7-0.4-1.4-0.4-2.3c0-0.8,0.1-1.6,0.5-2.3s0.7-1.3,1.3-1.9c0.5-0.5,1.2-1,1.9-1.3c0.7-0.3,1.5-0.4,2.3-0.4
			c0.9,0,1.7,0.2,2.4,0.6c0.7,0.4,1.3,0.9,1.8,1.5c0.5,0.6,0.9,1.3,1.1,2.1c0.2,0.8,0.3,1.7,0.3,2.6h-8.5c0.2,0.6,0.5,1,1,1.3
			c0.4,0.3,1,0.5,1.6,0.5c0.5,0,0.9-0.1,1.2-0.2s0.7-0.4,0.9-0.7L160.9,59.6z M159.1,54.2c0,0-0.1-0.1-0.1-0.2s-0.2-0.3-0.4-0.5
			c-0.2-0.2-0.4-0.3-0.7-0.5c-0.3-0.1-0.7-0.2-1.1-0.2c-0.4,0-0.7,0.1-1,0.2c-0.3,0.2-0.5,0.3-0.7,0.5c-0.2,0.2-0.4,0.4-0.6,0.7
			H159.1z"/>
		<path class="st5" d="M164.9,60.9l0-6.4c0-0.7,0.1-1.3,0.4-1.8s0.6-1.1,1-1.5s0.9-0.8,1.5-1c0.6-0.2,1.2-0.4,1.9-0.4
			c0.6,0,1.2,0.1,1.7,0.4c0.6,0.2,1,0.6,1.4,1c0.4,0.4,0.7,0.9,1,1.5s0.4,1.2,0.4,1.8v6.5h-3V55c0-0.7-0.1-1.2-0.4-1.6
			s-0.7-0.6-1.2-0.6c-0.5,0-0.9,0.2-1.2,0.5c-0.3,0.3-0.4,0.8-0.4,1.4v6.2H164.9z"/>
	</g>
</g>
</svg>
