<?xml version="1.0" encoding="utf-8"?>
<!-- Generator: Adobe Illustrator 25.0.0, SVG Export Plug-In . SVG Version: 6.00 Build 0)  -->
<svg version="1.1" id="Layer_1" xmlns="http://www.w3.org/2000/svg" xmlns:xlink="http://www.w3.org/1999/xlink" x="0px" y="0px"
	 viewBox="0 0 76.1 162" style="enable-background:new 0 0 76.1 162;" xml:space="preserve">
<style type="text/css">
	.st0{fill-rule:evenodd;clip-rule:evenodd;fill:url(#Shape_35_copy_1_);}
</style>
<g id="Layer_2_1_">
	<g id="Isolation_Mode">
		
			<linearGradient id="Shape_35_copy_1_" gradientUnits="userSpaceOnUse" x1="-1803.9301" y1="1080" x2="-1803.9301" y2="918" gradientTransform="matrix(-1 0 0 1 -1765.88 -918)">
			<stop  offset="0" style="stop-color:#E6A743"/>
			<stop  offset="1" style="stop-color:#FFFFFF"/>
		</linearGradient>
		<path id="Shape_35_copy" class="st0" d="M1,125.6l-1,0.6L33.6,162l1-0.6L1,125.6z M75,125.6l-33.5,35.8l1,0.6l33.6-35.8L75,125.6z
			 M42.5,83.7l-1,0.6l33.6,35.8l1-0.6L42.5,83.7z M33.6,83.7L0,119.6l1,0.6l33.6-35.8L33.6,83.7z M1,41.9l-1,0.6l33.6,35.8l1-0.6
			L1,41.9z M75,41.9L41.5,77.7l1,0.6l33.6-35.8L75,41.9z M42.5,0l-1,0.6l33.6,35.8l1-0.6L42.5,0z M33.6,0L0,35.8l1,0.6L34.6,0.6
			L33.6,0z"/>
	</g>
</g>
</svg>
