<svg xmlns="http://www.w3.org/2000/svg" xmlns:xlink="http://www.w3.org/1999/xlink" viewBox="0 0 76.12 162"><defs><style>.cls-1{fill-rule:evenodd;fill:url(#linear-gradient);}</style><linearGradient id="linear-gradient" x1="38.06" y1="580.84" x2="38.06" y2="418.84" gradientTransform="matrix(1, 0, 0, -1, 0, 580.84)" gradientUnits="userSpaceOnUse"><stop offset="0" stop-color="#af884d"/><stop offset="1" stop-color="#fff"/></linearGradient></defs><g id="Layer_2" data-name="Layer 2"><g id="Isolation_Mode" data-name="Isolation Mode"><path id="Shape_35_copy" data-name="Shape 35 copy" class="cls-1" d="M75.08,36.4l1-.57L42.53,0l-1,.56Zm-74,0L34.63.56l-1-.56L0,35.83ZM33.59,78.27l1-.57L1,41.87l-1,.56Zm8.94,0L76.12,42.43l-1-.56L41.5,77.7Zm32.55,41.87,1-.57L42.53,83.73l-1,.57Zm-74,0L34.63,84.3l-1-.56L0,119.57ZM33.59,162l1-.56L1,125.6l-1,.56Zm8.94,0,33.59-35.84-1-.56L41.5,161.44Z"/></g></g></svg>